<mxfile host="app.diagrams.net" modified="2022-02-19T06:55:57.951Z" agent="5.0 (Macintosh; Intel Mac OS X 10_15_7) AppleWebKit/537.36 (KHTML, like Gecko) Chrome/98.0.4758.80 Safari/537.36" etag="N_IR8irFho5Im0QNITNW" version="14.7.7" type="github">
  <diagram id="D0nQqY81WJLqoDBygyHP" name="第 1 页">
    <mxGraphModel dx="946" dy="621" grid="1" gridSize="10" guides="1" tooltips="1" connect="1" arrows="1" fold="1" page="1" pageScale="1" pageWidth="827" pageHeight="1169" math="0" shadow="0">
      <root>
        <mxCell id="0" />
        <mxCell id="1" parent="0" />
        <mxCell id="ZhuR7z2MztrJqJZCfH-b-1" value="" style="rounded=1;whiteSpace=wrap;html=1;fillColor=#f5f5f5;strokeColor=#666666;fontColor=#333333;" vertex="1" parent="1">
          <mxGeometry x="40" y="280" width="120" height="80" as="geometry" />
        </mxCell>
        <mxCell id="ZhuR7z2MztrJqJZCfH-b-2" value="" style="rounded=1;whiteSpace=wrap;html=1;fillColor=#dae8fc;strokeColor=#6c8ebf;" vertex="1" parent="1">
          <mxGeometry x="240" y="280" width="120" height="80" as="geometry" />
        </mxCell>
        <mxCell id="ZhuR7z2MztrJqJZCfH-b-3" value="" style="rounded=1;whiteSpace=wrap;html=1;fillColor=#f5f5f5;strokeColor=#666666;fontColor=#333333;" vertex="1" parent="1">
          <mxGeometry x="480" y="280" width="120" height="80" as="geometry" />
        </mxCell>
        <mxCell id="ZhuR7z2MztrJqJZCfH-b-4" value="" style="rounded=1;whiteSpace=wrap;html=1;fillColor=#dae8fc;strokeColor=#6c8ebf;" vertex="1" parent="1">
          <mxGeometry x="680" y="280" width="120" height="80" as="geometry" />
        </mxCell>
        <mxCell id="ZhuR7z2MztrJqJZCfH-b-6" value="&lt;h1&gt;&lt;font style=&quot;font-size: 16px&quot; face=&quot;Verdana&quot;&gt;底层&lt;/font&gt;&lt;/h1&gt;" style="text;html=1;strokeColor=none;fillColor=none;align=center;verticalAlign=middle;whiteSpace=wrap;rounded=0;" vertex="1" parent="1">
          <mxGeometry x="65" y="300" width="70" height="40" as="geometry" />
        </mxCell>
        <mxCell id="ZhuR7z2MztrJqJZCfH-b-7" value="&lt;h1&gt;&lt;font style=&quot;font-size: 16px&quot; face=&quot;Verdana&quot;&gt;底层&lt;/font&gt;&lt;/h1&gt;" style="text;html=1;strokeColor=none;fillColor=none;align=center;verticalAlign=middle;whiteSpace=wrap;rounded=0;" vertex="1" parent="1">
          <mxGeometry x="505" y="300" width="70" height="40" as="geometry" />
        </mxCell>
        <mxCell id="ZhuR7z2MztrJqJZCfH-b-8" value="&lt;h1&gt;&lt;font style=&quot;font-size: 16px&quot; face=&quot;Verdana&quot;&gt;上层&lt;/font&gt;&lt;/h1&gt;" style="text;html=1;strokeColor=none;fillColor=none;align=center;verticalAlign=middle;whiteSpace=wrap;rounded=0;" vertex="1" parent="1">
          <mxGeometry x="265" y="300" width="70" height="40" as="geometry" />
        </mxCell>
        <mxCell id="ZhuR7z2MztrJqJZCfH-b-9" value="&lt;h1&gt;&lt;font style=&quot;font-size: 16px&quot; face=&quot;Verdana&quot;&gt;上层&lt;/font&gt;&lt;/h1&gt;" style="text;html=1;strokeColor=none;fillColor=none;align=center;verticalAlign=middle;whiteSpace=wrap;rounded=0;" vertex="1" parent="1">
          <mxGeometry x="705" y="300" width="70" height="40" as="geometry" />
        </mxCell>
        <mxCell id="ZhuR7z2MztrJqJZCfH-b-10" value="" style="endArrow=classic;html=1;exitX=0;exitY=0.5;exitDx=0;exitDy=0;entryX=1;entryY=0.5;entryDx=0;entryDy=0;" edge="1" parent="1" source="ZhuR7z2MztrJqJZCfH-b-2" target="ZhuR7z2MztrJqJZCfH-b-1">
          <mxGeometry relative="1" as="geometry">
            <mxPoint x="320" y="240" as="sourcePoint" />
            <mxPoint x="420" y="240" as="targetPoint" />
          </mxGeometry>
        </mxCell>
        <mxCell id="ZhuR7z2MztrJqJZCfH-b-13" value="依赖" style="text;html=1;strokeColor=none;fillColor=none;align=center;verticalAlign=middle;whiteSpace=wrap;rounded=0;" vertex="1" parent="1">
          <mxGeometry x="180" y="300" width="40" height="20" as="geometry" />
        </mxCell>
        <mxCell id="ZhuR7z2MztrJqJZCfH-b-14" value="" style="rounded=1;whiteSpace=wrap;html=1;fillColor=#d5e8d4;strokeColor=#82b366;" vertex="1" parent="1">
          <mxGeometry x="585" y="160" width="115" height="40" as="geometry" />
        </mxCell>
        <mxCell id="ZhuR7z2MztrJqJZCfH-b-15" value="&lt;h1&gt;&lt;font style=&quot;font-size: 16px&quot; face=&quot;Verdana&quot;&gt;接口&lt;/font&gt;&lt;/h1&gt;" style="text;html=1;strokeColor=none;fillColor=none;align=center;verticalAlign=middle;whiteSpace=wrap;rounded=0;" vertex="1" parent="1">
          <mxGeometry x="607.5" y="160" width="70" height="40" as="geometry" />
        </mxCell>
        <mxCell id="ZhuR7z2MztrJqJZCfH-b-16" value="" style="endArrow=classic;html=1;exitX=0.5;exitY=0;exitDx=0;exitDy=0;entryX=0;entryY=0.5;entryDx=0;entryDy=0;" edge="1" parent="1" source="ZhuR7z2MztrJqJZCfH-b-3" target="ZhuR7z2MztrJqJZCfH-b-14">
          <mxGeometry width="50" height="50" relative="1" as="geometry">
            <mxPoint x="350" y="250" as="sourcePoint" />
            <mxPoint x="400" y="200" as="targetPoint" />
            <Array as="points">
              <mxPoint x="540" y="180" />
            </Array>
          </mxGeometry>
        </mxCell>
        <mxCell id="ZhuR7z2MztrJqJZCfH-b-17" value="" style="endArrow=classic;html=1;exitX=0.5;exitY=0;exitDx=0;exitDy=0;entryX=1;entryY=0.5;entryDx=0;entryDy=0;" edge="1" parent="1" source="ZhuR7z2MztrJqJZCfH-b-4" target="ZhuR7z2MztrJqJZCfH-b-14">
          <mxGeometry width="50" height="50" relative="1" as="geometry">
            <mxPoint x="350" y="250" as="sourcePoint" />
            <mxPoint x="400" y="200" as="targetPoint" />
            <Array as="points">
              <mxPoint x="740" y="180" />
            </Array>
          </mxGeometry>
        </mxCell>
        <mxCell id="ZhuR7z2MztrJqJZCfH-b-18" value="实现" style="text;html=1;strokeColor=none;fillColor=none;align=center;verticalAlign=middle;whiteSpace=wrap;rounded=0;" vertex="1" parent="1">
          <mxGeometry x="500" y="220" width="40" height="20" as="geometry" />
        </mxCell>
        <mxCell id="ZhuR7z2MztrJqJZCfH-b-19" value="依赖" style="text;html=1;strokeColor=none;fillColor=none;align=center;verticalAlign=middle;whiteSpace=wrap;rounded=0;" vertex="1" parent="1">
          <mxGeometry x="738" y="220" width="40" height="20" as="geometry" />
        </mxCell>
      </root>
    </mxGraphModel>
  </diagram>
</mxfile>
